HIERARCHY
ROOT Hips
{
	OFFSET 0.000000 100.481300 0.000000
	CHANNELS 6 Xposition Yposition Zposition Xrotation Yrotation Zrotation
	JOINT Spine
	{
		OFFSET -0.279200 12.230698 -2.892100
		CHANNELS 3 Xrotation Yrotation Zrotation
		JOINT Spine1
		{
			OFFSET -0.325700 14.269203 -3.374200
			CHANNELS 3 Xrotation Yrotation Zrotation
			JOINT Spine2
			{
				OFFSET -0.372300 16.307602 -0.352600
				CHANNELS 3 Xrotation Yrotation Zrotation
				JOINT Neck
				{
					OFFSET -0.418800 17.814194 8.416900
					CHANNELS 3 Xrotation Yrotation Zrotation
					JOINT Head
					{
						OFFSET 0.000000 7.031097 3.806800
						CHANNELS 3 Xrotation Yrotation Zrotation
						JOINT HeadTop_End
						{
							OFFSET 0.000000 24.646606 12.978600
							CHANNELS 3 Xrotation Yrotation Zrotation
							End Site
							{
								OFFSET 0.000000 27.854965 0.000000
							}
						}
					}
				}
				JOINT LeftShoulder
				{
					OFFSET 16.952999 14.495407 -7.737500
					CHANNELS 3 Xrotation Yrotation Zrotation
					JOINT LeftArm
					{
						OFFSET 9.308998 -2.777710 0.208600
						CHANNELS 3 Xrotation Yrotation Zrotation
						JOINT LeftForeArm
						{
							OFFSET 29.972298 0.000000 0.000000
							CHANNELS 3 Xrotation Yrotation Zrotation
							JOINT LeftHand
							{
								OFFSET 26.026505 0.000000 0.000000
								CHANNELS 3 Xrotation Yrotation Zrotation
								JOINT LeftHandThumb1
								{
									OFFSET 12.240501 -7.147949 9.207150
									CHANNELS 3 Xrotation Yrotation Zrotation
									JOINT LeftHandThumb2
									{
										OFFSET 4.138618 -2.389435 2.389433
										CHANNELS 3 Xrotation Yrotation Zrotation
										JOINT LeftHandThumb3
										{
											OFFSET 2.726913 -1.574387 1.574386
											CHANNELS 3 Xrotation Yrotation Zrotation
											JOINT LeftHandThumb4
											{
												OFFSET 3.941010 -2.275345 2.275342
												CHANNELS 3 Xrotation Yrotation Zrotation
												End Site
												{
													OFFSET -0.005798 5.087799 0.009903
												}
											}
										}
									}
								}
								JOINT LeftHandIndex1
								{
									OFFSET 24.424698 -1.985611 5.953459
									CHANNELS 3 Xrotation Yrotation Zrotation
									JOINT LeftHandIndex2
									{
										OFFSET 6.426697 0.000000 0.000000
										CHANNELS 3 Xrotation Yrotation Zrotation
										JOINT LeftHandIndex3
										{
											OFFSET 5.337898 0.000000 0.000000
											CHANNELS 3 Xrotation Yrotation Zrotation
											JOINT LeftHandIndex4
											{
												OFFSET 4.409401 0.000000 0.000000
												CHANNELS 3 Xrotation Yrotation Zrotation
												End Site
												{
													OFFSET 0.000000 4.409363 0.014373
												}
											}
										}
									}
								}
								JOINT LeftHandMiddle1
								{
									OFFSET 23.810104 0.000000 0.000000
									CHANNELS 3 Xrotation Yrotation Zrotation
									JOINT LeftHandMiddle2
									{
										OFFSET 7.176498 0.000000 0.000000
										CHANNELS 3 Xrotation Yrotation Zrotation
										JOINT LeftHandMiddle3
										{
											OFFSET 6.774902 0.000000 0.000000
											CHANNELS 3 Xrotation Yrotation Zrotation
											JOINT LeftHandMiddle4
											{
												OFFSET 5.403328 0.000000 0.000000
												CHANNELS 3 Xrotation Yrotation Zrotation
												End Site
												{
													OFFSET -0.027702 5.403244 0.017414
												}
											}
										}
									}
								}
								JOINT LeftHandRing1
								{
									OFFSET 22.908401 -0.839279 -6.020567
									CHANNELS 3 Xrotation Yrotation Zrotation
									JOINT LeftHandRing2
									{
										OFFSET 6.337502 0.000000 0.000000
										CHANNELS 3 Xrotation Yrotation Zrotation
										JOINT LeftHandRing3
										{
											OFFSET 5.779297 0.000000 0.000000
											CHANNELS 3 Xrotation Yrotation Zrotation
											JOINT LeftHandRing4
											{
												OFFSET 4.965698 0.000000 0.000000
												CHANNELS 3 Xrotation Yrotation Zrotation
												End Site
												{
													OFFSET 0.000000 4.965668 0.016186
												}
											}
										}
									}
								}
								JOINT LeftHandPinky1
								{
									OFFSET 20.037003 -1.530319 -10.950146
									CHANNELS 3 Xrotation Yrotation Zrotation
									JOINT LeftHandPinky2
									{
										OFFSET 5.254700 0.000000 0.000000
										CHANNELS 3 Xrotation Yrotation Zrotation
										JOINT LeftHandPinky3
										{
											OFFSET 4.810204 0.000000 0.000000
											CHANNELS 3 Xrotation Yrotation Zrotation
											JOINT LeftHandPinky4
											{
												OFFSET 3.647202 0.000000 0.000000
												CHANNELS 3 Xrotation Yrotation Zrotation
												End Site
												{
													OFFSET 0.000000 3.647186 0.011889
												}
											}
										}
									}
								}
							}
						}
					}
				}
				JOINT RightShoulder
				{
					OFFSET -15.141001 14.495407 -7.737500
					CHANNELS 3 Xrotation Yrotation Zrotation
					JOINT RightArm
					{
						OFFSET -9.308998 -2.777710 0.208500
						CHANNELS 3 Xrotation Yrotation Zrotation
						JOINT RightForeArm
						{
							OFFSET -29.972300 0.000000 0.000000
							CHANNELS 3 Xrotation Yrotation Zrotation
							JOINT RightHand
							{
								OFFSET -26.026505 0.000000 0.000000
								CHANNELS 3 Xrotation Yrotation Zrotation
								JOINT RightHandThumb1
								{
									OFFSET -12.240601 -7.148026 9.207092
									CHANNELS 3 Xrotation Yrotation Zrotation
									JOINT RightHandThumb2
									{
										OFFSET -4.138618 -2.389435 2.389433
										CHANNELS 3 Xrotation Yrotation Zrotation
										JOINT RightHandThumb3
										{
											OFFSET -2.726974 -1.574417 1.574421
											CHANNELS 3 Xrotation Yrotation Zrotation
											JOINT RightHandThumb4
											{
												OFFSET -3.941010 -2.275345 2.275343
												CHANNELS 3 Xrotation Yrotation Zrotation
												End Site
												{
													OFFSET 0.005814 5.087799 0.009927
												}
											}
										}
									}
								}
								JOINT RightHandIndex1
								{
									OFFSET -24.424698 -1.985657 5.953444
									CHANNELS 3 Xrotation Yrotation Zrotation
									JOINT RightHandIndex2
									{
										OFFSET -6.426697 0.000000 0.000000
										CHANNELS 3 Xrotation Yrotation Zrotation
										JOINT RightHandIndex3
										{
											OFFSET -5.337898 0.000000 0.000000
											CHANNELS 3 Xrotation Yrotation Zrotation
											JOINT RightHandIndex4
											{
												OFFSET -4.409401 0.000000 0.000000
												CHANNELS 3 Xrotation Yrotation Zrotation
												End Site
												{
													OFFSET 0.000000 4.409363 0.014408
												}
											}
										}
									}
								}
								JOINT RightHandMiddle1
								{
									OFFSET -23.810097 0.000000 0.000000
									CHANNELS 3 Xrotation Yrotation Zrotation
									JOINT RightHandMiddle2
									{
										OFFSET -7.176498 0.000000 0.000000
										CHANNELS 3 Xrotation Yrotation Zrotation
										JOINT RightHandMiddle3
										{
											OFFSET -6.774902 0.000000 0.000000
											CHANNELS 3 Xrotation Yrotation Zrotation
											JOINT RightHandMiddle4
											{
												OFFSET -5.403328 0.000000 0.000000
												CHANNELS 3 Xrotation Yrotation Zrotation
												End Site
												{
													OFFSET 0.027702 5.403244 0.017457
												}
											}
										}
									}
								}
								JOINT RightHandRing1
								{
									OFFSET -22.908302 -0.839325 -6.020576
									CHANNELS 3 Xrotation Yrotation Zrotation
									JOINT RightHandRing2
									{
										OFFSET -6.337502 0.000000 0.000000
										CHANNELS 3 Xrotation Yrotation Zrotation
										JOINT RightHandRing3
										{
											OFFSET -5.779297 0.000000 0.000000
											CHANNELS 3 Xrotation Yrotation Zrotation
											JOINT RightHandRing4
											{
												OFFSET -4.965698 0.000000 0.000000
												CHANNELS 3 Xrotation Yrotation Zrotation
												End Site
												{
													OFFSET 0.000000 4.965668 0.016226
												}
											}
										}
									}
								}
								JOINT RightHandPinky1
								{
									OFFSET -20.037003 -1.530334 -10.950259
									CHANNELS 3 Xrotation Yrotation Zrotation
									JOINT RightHandPinky2
									{
										OFFSET -5.254700 0.000000 0.000000
										CHANNELS 3 Xrotation Yrotation Zrotation
										JOINT RightHandPinky3
										{
											OFFSET -4.810204 0.000000 0.000000
											CHANNELS 3 Xrotation Yrotation Zrotation
											JOINT RightHandPinky4
											{
												OFFSET -3.647202 0.000000 0.000000
												CHANNELS 3 Xrotation Yrotation Zrotation
												End Site
												{
													OFFSET 0.000000 3.647186 0.011917
												}
											}
										}
									}
								}
							}
						}
					}
				}
			}
		}
	}
	JOINT LeftUpLeg
	{
		OFFSET 15.427100 -6.655098 0.678600
		CHANNELS 3 Xrotation Yrotation Zrotation
		JOINT LeftLeg
		{
			OFFSET 4.081073 -39.591068 13.024000
			CHANNELS 3 Xrotation Yrotation Zrotation
			JOINT LeftFoot
			{
				OFFSET -4.081074 -37.707932 -15.979700
				CHANNELS 3 Xrotation Yrotation Zrotation
				JOINT LeftToeBase
				{
					OFFSET 5.346399 -15.068900 20.645000
					CHANNELS 3 Xrotation Yrotation Zrotation
					JOINT LeftToe_End
					{
						OFFSET 2.754700 0.931300 11.300900
						CHANNELS 3 Xrotation Yrotation Zrotation
						End Site
						{
							OFFSET 0.000000 11.669021 0.000000
						}
					}
				}
			}
		}
	}
	JOINT RightUpLeg
	{
		OFFSET -15.569500 -6.655098 0.678600
		CHANNELS 3 Xrotation Yrotation Zrotation
		JOINT RightLeg
		{
			OFFSET -4.081825 -39.591045 13.023800
			CHANNELS 3 Xrotation Yrotation Zrotation
			JOINT RightFoot
			{
				OFFSET 4.081824 -37.707954 -15.979600
				CHANNELS 3 Xrotation Yrotation Zrotation
				JOINT RightToeBase
				{
					OFFSET -5.346400 -15.068900 20.645000
					CHANNELS 3 Xrotation Yrotation Zrotation
					JOINT RightToe_End
					{
						OFFSET -2.754700 0.931300 11.300900
						CHANNELS 3 Xrotation Yrotation Zrotation
						End Site
						{
							OFFSET 0.000000 11.669021 0.000000
						}
					}
				}
			}
		}
	}
}
MOTION
Frames: 4
Frame Time: 0.033333
0.534205 98.769440 1.162088 1.055854 -4.124531 -1.115575 0.676330 -0.065098 -0.011661 -1.257136 -0.011249 -0.012367 -1.257110 -0.018363 -0.012057 -11.617231 2.543409 9.555103 -8.748310 -3.661701 3.113219 -0.000000 -0.000000 -0.000000 -0.043223 7.289037 -9.875101 3.385849 -22.631395 -68.715596 0.000001 -5.742287 -0.000019 -12.066736 6.956177 12.063450 -3.746232 21.435208 10.697258 2.100294 3.495745 -0.317535 -1.720085 -9.139911 1.339416 0.000000 0.000001 0.000001 0.022079 -0.552121 4.580023 0.104437 1.197112 -9.971363 0.036432 -0.708849 5.884395 -0.000001 0.000000 0.000001 0.038349 0.727180 -6.037197 0.142126 1.394563 -11.637995 0.104469 1.197312 -9.973053 -0.000000 0.000000 -0.000000 1.931360 5.730632 -24.355135 0.221830 1.737032 -14.554040 0.040084 0.743453 -6.172808 0.000000 0.000000 -0.000002 5.531733 10.411924 -33.194214 0.346025 -1.901311 -18.663103 0.393101 2.297411 -19.416858 -0.000001 0.000000 0.000001 -2.787565 -11.988983 -3.606471 -50.606685 15.251411 22.287221 0.000027 125.140376 -0.000026 9.199660 -16.030032 -36.385490 -11.472506 -15.044511 -9.946881 -3.267400 0.331374 -6.208928 -5.545935 10.596964 1.223440 0.000002 0.000001 -0.000001 0.891031 15.723980 -2.386673 0.018728 -0.511302 4.199337 0.067529 0.968578 -7.974184 -0.000000 -0.000001 -0.000000 -0.003717 1.865965 0.227492 0.236684 -1.802136 14.962151 0.012927 0.424912 -3.488993 0.000000 0.000001 0.000000 0.872403 -7.372314 6.786632 0.239866 -1.814030 15.063210 -0.828166 0.667755 -4.877846 0.000000 0.000001 0.000001 5.509971 -19.978597 15.328155 0.003798 -0.230511 1.891754 0.049865 -0.832878 6.851144 -0.000000 -0.000001 0.000000 2.225693 6.949272 2.594619 4.748158 -0.712712 -0.877345 -8.160766 0.447011 -0.834402 -0.347996 -0.000001 -0.000000 -0.000000 0.000000 0.000000 1.755889 -6.899030 2.102957 3.730313 1.905403 -0.841256 -6.352219 0.054678 0.044178 -0.000024 0.000004 -0.000003 0.000000 -0.000000 -0.000000 
0.551668 98.774445 1.182170 1.068861 -4.197293 -1.089995 0.678384 -0.079945 -0.013400 -1.256679 -0.017432 -0.012737 -1.256643 -0.024482 -0.012262 -11.628368 2.533647 9.576968 -8.771621 -3.673733 3.149977 0.000000 -0.000000 0.000001 -0.052349 7.306352 -9.840350 3.313919 -22.680908 -68.843375 0.000004 -5.653069 -0.000001 -12.205780 7.084743 11.924871 -3.726292 21.535882 10.721445 2.222020 3.784204 -0.244191 -1.667321 -8.692474 1.394441 -0.000000 -0.000001 0.000000 0.020296 -0.529422 4.391402 0.103464 1.191565 -9.924735 0.033322 -0.677985 5.627382 0.000000 0.000000 -0.000001 0.039566 0.738587 -6.132262 0.142125 1.394563 -11.637993 0.104469 1.197311 -9.973052 -0.000001 0.000000 -0.000000 1.894522 5.666549 -24.230468 0.221810 1.736967 -14.553455 0.040085 0.743453 -6.172807 0.000001 -0.000001 -0.000000 5.456981 10.343793 -33.015990 0.345116 -1.904005 -18.639533 0.384795 2.273729 -19.208640 0.000000 0.000000 -0.000005 -2.804993 -12.028400 -3.669496 -50.569611 15.263495 22.236717 -0.000021 127.278827 0.000013 25.825454 -10.821227 -29.252942 -11.472514 -15.044518 -9.946874 -3.267406 0.331421 -6.208909 -5.545921 10.596946 1.223441 -0.000002 0.000002 -0.000001 0.891041 15.723973 -2.386663 0.018732 -0.511297 4.199339 0.067509 0.968579 -7.974179 -0.000000 -0.000002 -0.000000 -0.003710 1.865978 0.227493 0.236681 -1.802151 14.962154 0.012948 0.424916 -3.488987 0.000000 -0.000002 0.000000 0.872410 -7.372332 6.786631 0.239868 -1.814021 15.063219 -0.828170 0.667768 -4.877840 -0.000000 0.000001 -0.000000 5.509971 -19.978592 15.328157 0.003821 -0.230496 1.891759 0.049849 -0.832882 6.851128 0.000000 0.000000 0.000002 2.278128 6.934375 2.558220 4.691974 -0.629676 -0.880635 -8.163773 0.453870 -0.836498 -0.359665 -0.000002 -0.000000 -0.000000 0.000000 0.000000 1.727312 -6.914462 2.076338 3.741890 1.991479 -0.852231 -6.349514 0.057989 0.047883 -0.007333 -0.000003 0.000001 0.000000 -0.000000 -0.000000 
0.568254 98.782631 1.198394 1.093921 -4.271571 -1.063137 0.681081 -0.089390 -0.014978 -1.256656 -0.021490 -0.010404 -1.256611 -0.028451 -0.009822 -11.656345 2.515922 9.585453 -8.810749 -3.719263 3.250300 -0.000001 -0.000001 0.000001 -0.071232 7.338212 -9.769529 3.213879 -22.735463 -69.019465 0.000002 -5.547863 0.000016 -12.359477 7.227983 11.775844 -3.705709 21.639977 10.746439 2.347528 4.082577 -0.168975 -1.613302 -8.229850 1.450815 0.000001 0.000001 0.000003 0.018538 -0.505957 4.196401 0.102461 1.185832 -9.876483 0.030252 -0.646066 5.361624 0.000000 0.000000 -0.000000 0.040840 0.750380 -6.230533 0.142125 1.394562 -11.637995 0.104471 1.197312 -9.973052 0.000000 0.000000 -0.000001 1.856725 5.600155 -24.101678 0.221791 1.736896 -14.552896 0.040085 0.743454 -6.172805 0.000001 0.000000 0.000002 5.380145 10.272949 -32.831872 0.344174 -1.906794 -18.615158 0.376303 2.249220 -18.993397 0.000000 0.000001 0.000001 -2.808990 -12.017942 -3.684903 -50.878018 15.009009 22.321851 0.000016 129.278255 -0.000013 40.352256 -4.542153 -22.204880 -11.472516 -15.044526 -9.946877 -3.267389 0.331374 -6.208931 -5.545922 10.596958 1.223436 -0.000001 0.000001 -0.000002 0.891019 15.723982 -2.386662 0.018743 -0.511294 4.199336 0.067512 0.968571 -7.974185 -0.000001 0.000002 -0.000000 -0.003731 1.865973 0.227493 0.236695 -1.802147 14.962136 0.012937 0.424927 -3.488986 0.000001 0.000003 0.000000 0.872416 -7.372298 6.786632 0.239850 -1.814049 15.063207 -0.828160 0.667774 -4.877836 0.000002 -0.000000 0.000001 5.509990 -19.978582 15.328159 0.003798 -0.230504 1.891760 0.049860 -0.832886 6.851134 -0.000001 -0.000000 0.000001 2.319518 6.922220 2.523170 4.625782 -0.548541 -0.886738 -8.157822 0.460719 -0.837536 -0.379140 -0.000002 -0.000000 -0.000000 0.000000 0.000000 1.688243 -6.925528 2.050151 3.744165 2.068987 -0.863156 -6.339273 0.061926 0.052018 -0.028869 -0.000001 -0.000000 -0.000000 0.000001 0.000000 
0.583569 98.790237 1.211476 1.128258 -4.321126 -1.041399 0.683519 -0.090684 -0.016256 -1.256389 -0.022195 -0.006835 -1.256341 -0.029103 -0.006235 -11.700290 2.487713 9.600617 -8.864739 -3.801294 3.335434 -0.000000 -0.000000 0.000000 -0.093673 7.376106 -9.685572 3.105011 -22.783090 -69.215873 0.000002 -5.441478 -0.000005 -12.444967 7.393216 11.627436 -3.684517 21.747278 10.772141 2.476531 4.390311 -0.092092 -1.558153 -7.752910 1.508374 -0.000000 -0.000001 -0.000001 0.016804 -0.481763 3.995368 0.101437 1.179924 -9.826737 0.027241 -0.613148 5.087659 0.000000 -0.000000 -0.000000 0.042176 0.762531 -6.331868 0.142125 1.394563 -11.637995 0.104471 1.197312 -9.973053 -0.000000 -0.000000 -0.000000 1.818056 5.531565 -23.968969 0.221776 1.736826 -14.552328 0.040086 0.743453 -6.172805 -0.000000 0.000000 -0.000003 5.301404 10.199489 -32.642287 0.343206 -1.909669 -18.590072 0.367646 2.223924 -18.771515 -0.000000 -0.000001 -0.000003 -2.792099 -11.971581 -3.624211 -51.294680 14.564204 22.376306 -0.000016 131.093651 -0.000006 48.988319 2.033407 -16.420161 -11.472501 -15.044503 -9.946870 -3.267377 0.331288 -6.208940 -5.545927 10.596963 1.223436 -0.000000 -0.000003 0.000000 0.891043 15.723965 -2.386670 0.018740 -0.511290 4.199331 0.067522 0.968570 -7.974183 -0.000000 0.000001 0.000000 -0.003725 1.865966 0.227493 0.236656 -1.802157 14.962154 0.012955 0.424932 -3.488997 0.000001 -0.000003 0.000002 0.872401 -7.372314 6.786634 0.239861 -1.814033 15.063207 -0.828185 0.667766 -4.877822 0.000001 0.000000 -0.000001 5.509981 -19.978575 15.328155 0.003800 -0.230509 1.891769 0.049854 -0.832879 6.851131 -0.000000 -0.000003 -0.000000 2.335658 6.915089 2.496867 4.570227 -0.495582 -0.898205 -8.148329 0.463985 -0.831066 -0.397598 -0.000001 -0.000000 0.000000 -0.000000 -0.000000 1.646655 -6.938814 2.025705 3.740231 2.125246 -0.866395 -6.329296 0.064257 0.055431 -0.042229 0.000008 -0.000000 0.000000 0.000001 0.000000 
